<svg width="600" height="300" viewBox="0 0 600 300" fill="none" xmlns="http://www.w3.org/2000/svg">
<g id="simpleTank">
<path id="pipes" d="M179.5 30H291C296.523 30 301 34.4772 301 40V260C301 265.523 305.477 270 311 270H380" stroke="black" stroke-width="6" stroke-linejoin="round"/>
<path id="tankFill" d="M300 44C327.614 44 350 50.7157 350 59V239C350 247.284 327.614 254 300 254C272.386 254 250 247.284 250 239V59C250 50.7157 272.386 44 300 44Z" fill="white"/>
<ellipse id="endcapFill" cx="300" cy="240" rx="50" ry="12" fill="#74CDFF"/>
<g id="tankWrapper">
<rect id="level" x="250" y="60" width="100" height="180" fill="#74CDFF"/>
<path id="mask" d="M300 44C327.614 44 350 50.7157 350 59V239C350 247.284 327.614 254 300 254C272.386 254 250 247.284 250 239V59C250 50.7157 272.386 44 300 44Z" fill="#FF0000" fill-opacity="0.2"/>
</g>
<path id="tank" d="M300 46C313.669 46 325.966 47.6646 334.781 50.3091C339.201 51.6351 342.632 53.1743 344.914 54.7926C347.247 56.4478 348 57.8986 348 59V239C348 240.101 347.247 241.552 344.914 243.207C342.632 244.826 339.201 246.365 334.781 247.691C325.966 250.335 313.669 252 300 252C286.331 252 274.034 250.335 265.219 247.691C260.799 246.365 257.368 244.826 255.086 243.207C252.753 241.552 252 240.101 252 239V59C252 57.8986 252.753 56.4478 255.086 54.7926C257.368 53.1743 260.799 51.6351 265.219 50.3091C274.034 47.6646 286.331 46 300 46Z" stroke="black" stroke-width="4"/>
<g id="setPoint">
<path id="SP" d="M382.256 60.2959C380.809 59.8799 379.754 59.3701 379.092 58.7666C378.436 58.1572 378.107 57.4072 378.107 56.5166C378.107 55.5088 378.509 54.6768 379.312 54.0205C380.12 53.3584 381.169 53.0273 382.458 53.0273C383.337 53.0273 384.119 53.1973 384.805 53.5371C385.496 53.877 386.029 54.3457 386.404 54.9434C386.785 55.541 386.976 56.1943 386.976 56.9033H385.279C385.279 56.1299 385.033 55.5234 384.541 55.084C384.049 54.6387 383.354 54.416 382.458 54.416C381.626 54.416 380.976 54.6006 380.507 54.9697C380.044 55.333 379.812 55.8398 379.812 56.4902C379.812 57.0117 380.032 57.4541 380.472 57.8174C380.917 58.1748 381.67 58.5029 382.73 58.8018C383.797 59.1006 384.629 59.4316 385.227 59.7949C385.83 60.1523 386.275 60.5713 386.562 61.0518C386.855 61.5322 387.002 62.0977 387.002 62.748C387.002 63.7852 386.598 64.6172 385.789 65.2441C384.98 65.8652 383.899 66.1758 382.546 66.1758C381.667 66.1758 380.847 66.0088 380.085 65.6748C379.323 65.335 378.734 64.8721 378.318 64.2861C377.908 63.7002 377.703 63.0352 377.703 62.291H379.399C379.399 63.0645 379.684 63.6768 380.252 64.1279C380.826 64.5732 381.591 64.7959 382.546 64.7959C383.437 64.7959 384.119 64.6143 384.594 64.251C385.068 63.8877 385.306 63.3926 385.306 62.7656C385.306 62.1387 385.086 61.6553 384.646 61.3154C384.207 60.9697 383.41 60.6299 382.256 60.2959ZM390.86 60.9902V66H389.173V53.2031H393.893C395.293 53.2031 396.389 53.5605 397.18 54.2754C397.977 54.9902 398.375 55.9365 398.375 57.1143C398.375 58.3564 397.985 59.3145 397.206 59.9883C396.433 60.6562 395.322 60.9902 393.875 60.9902H390.86ZM390.86 59.6104H393.893C394.795 59.6104 395.486 59.3994 395.967 58.9775C396.447 58.5498 396.688 57.9346 396.688 57.1318C396.688 56.3701 396.447 55.7607 395.967 55.3037C395.486 54.8467 394.827 54.6094 393.989 54.5918H390.86V59.6104Z" fill="#808080"/>
<path id="arrow" d="M370 50L350 60L370 70V50Z" fill="#808080"/>
</g>
<circle id="valve-bg" cx="210" cy="30" r="15" fill="#808080"/>
<circle id="valve" cx="210" cy="30" r="15" fill="#5AB95E"/>
</g>
</svg>
